<svg xmlns="http://www.w3.org/2000/svg" viewBox="0 0 376.91 165.77"><defs><style>.cls-1{fill:#231f20;stroke:#231f20;stroke-width:0.69px;}</style></defs><path class="cls-1" d="M370.67,166.54q-5.62-4.87-12.52-21.15l-57-133.27.09-.41-291.11-.1L10.35,17h.13v1.17h6.23q9.41,0,14.18,5.28,3.3,3.68,3.31,19.13V147.77q0,14-2.45,17.66-4.53,6.75-15,6.75H10.48v4.47H81.29v-4.47H75q-9.36,0-14-5.27-3.42-3.67-3.41-19.14V100.44c5.3,1.07,10.26,1.89,14.91,2.47a104.63,104.63,0,0,0,13,.86q24.43,0,37.82-12.53A41.13,41.13,0,0,0,132.81,78v69.87q0,14.63-2.89,18.49-4.59,5.92-14.7,5.92h-5.79v4.47h70.13v-4.47h-5.88a22,22,0,0,1-10.91-2.9,10.7,10.7,0,0,1-5-5.2q-1.56-3.85-1.56-16.31v-104a28.4,28.4,0,0,1,4-9.29A22.49,22.49,0,0,1,171,25.76q4.83-1.7,16.32-1.69H207V148.51q0,13.61-2.67,17.45-4.4,6.27-14.86,6.27h-5.84v4.47h70.13v-.21h9.61V172q-11.87-.84-15.43-3.67c-2.39-1.89-3.57-4.07-3.57-6.56q0-4.57,4.12-14.1l11.14-25.51h64.08l9.73,23.19q4.85,11.46,4.84,16.64a8.39,8.39,0,0,1-3.45,6.76q-3.43,2.78-13.25,3.25v4.47h64.76V172Q376.29,171.44,370.67,166.54ZM287.32,33.91l-.1-2.25.85.55Zm-188,52.31q-9.16,9.65-21.8,9.64a78.34,78.34,0,0,1-8.5-.55q-5-.54-11.41-1.78V25.67a70.81,70.81,0,0,1,15.9-2.34,36.7,36.7,0,0,1,18.22,4.49,29.81,29.81,0,0,1,12.38,13.59,44.72,44.72,0,0,1,4.38,19.66Q108.45,76.57,99.28,86.22Zm139.31,57.57A128.28,128.28,0,0,1,231,159.21a79.9,79.9,0,0,1-.6-10.7V24.07h23.13q10.17,0,16.4,3.33a24.4,24.4,0,0,1,10,10.22,30.07,30.07,0,0,1,2.45,7.48Zm25-30.55,28.78-65.83L320,113.24Z" transform="translate(-9.78 -11.27)"/></svg>